<svg width="21" height="24" viewBox="0 0 21 24" fill="none" xmlns="http://www.w3.org/2000/svg">
<path d="M15.5627 8.64175C17.0947 9.74616 18.9717 10.396 20.9988 10.396V6.46247C20.6151 6.46262 20.2325 6.42223 19.8571 6.34197V9.43822C17.8302 9.43822 15.9535 8.78848 14.4211 7.68415V15.7114C14.4211 19.7271 11.1929 22.9822 7.21099 22.9822C5.72524 22.9822 4.34425 22.5292 3.19711 21.7524C4.50642 23.1024 6.33232 23.9398 8.3523 23.9398C12.3345 23.9398 15.5628 20.6848 15.5628 16.6689V8.64175H15.5627ZM16.971 4.67331C16.188 3.81071 15.6739 2.69596 15.5627 1.46351V0.957611H14.4808C14.7531 2.52398 15.6821 3.86219 16.971 4.67331ZM5.71565 18.6709C5.27815 18.0926 5.04167 17.385 5.04279 16.6574C5.04279 14.8208 6.51934 13.3317 8.34106 13.3317C8.6805 13.3315 9.01795 13.3841 9.34153 13.4875V9.46602C8.96339 9.4138 8.58181 9.39154 8.20039 9.39974V12.5298C7.87664 12.4263 7.53902 12.3738 7.19942 12.3741C5.37778 12.3741 3.90131 13.8631 3.90131 15.6999C3.90131 16.9987 4.6393 18.1232 5.71565 18.6709Z" fill="#FF004F"/>
<path d="M14.4211 7.68407C15.9536 8.7884 17.8301 9.43814 19.8572 9.43814V6.34189C18.7257 6.09883 17.7241 5.50263 16.971 4.67331C15.6819 3.86211 14.7532 2.5239 14.4808 0.957611H11.6392V16.6688C11.6327 18.5004 10.1587 19.9834 8.34092 19.9834C7.26982 19.9834 6.31815 19.4686 5.7155 18.6709C4.63932 18.1232 3.90125 16.9986 3.90125 15.7C3.90125 13.8633 5.37772 12.3742 7.19936 12.3742C7.54838 12.3742 7.88477 12.429 8.20032 12.5299V9.39982C4.28833 9.48134 1.14221 12.7046 1.14221 16.6688C1.14221 18.6478 1.92564 20.4417 3.19722 21.7525C4.34435 22.5292 5.72526 22.9823 7.21109 22.9823C11.1931 22.9823 14.4212 19.727 14.4212 15.7114L14.4211 7.68407Z" fill="black"/>
<path d="M19.8574 6.34179V5.50477C18.837 5.50627 17.8369 5.21813 16.9712 4.6733C17.7375 5.51927 18.7465 6.10265 19.8574 6.34196M14.4809 0.957517C14.455 0.807854 14.4351 0.657193 14.4212 0.505903V0H10.4976V15.7113C10.4914 17.5428 9.01734 19.0258 7.19948 19.0258C6.68413 19.0266 6.17582 18.905 5.71562 18.671C6.31827 19.4686 7.26994 19.9833 8.34104 19.9833C10.1587 19.9833 11.6329 18.5004 11.6393 16.6688V0.9576L14.4809 0.957517ZM8.20069 9.39972V8.5085C7.87282 8.46333 7.54228 8.44072 7.21137 8.4408C3.229 8.4408 0.000854492 11.696 0.000854492 15.7113C0.000854492 18.2287 1.26955 20.4473 3.1975 21.7524C1.92593 20.4416 1.1425 18.6476 1.1425 16.6687C1.1425 12.7046 4.28853 9.48124 8.20069 9.39972Z" fill="#00F2EA"/>
</svg>
